<svg width="60" height="54" viewBox="0 0 60 54" fill="none" xmlns="http://www.w3.org/2000/svg">
<path d="M60 38.5571C59.9108 38.8518 59.8298 39.15 59.7311 39.4423C59.0655 41.4135 57.2868 42.752 55.1382 42.86C54.3011 42.9022 53.4594 42.8882 52.6199 42.8717C51.9918 42.86 51.6161 42.4866 51.636 41.9513C51.656 41.4335 52.0117 41.1282 52.6316 41.1212C53.3736 41.113 54.1156 41.1306 54.8576 41.1153C56.8512 41.0754 58.2295 39.6806 58.2389 37.6918C58.2448 36.344 58.2342 34.9973 58.2295 33.6495C58.2295 33.6143 58.2014 33.5803 58.172 33.5122H1.80452C1.7916 33.6542 1.76577 33.8033 1.7646 33.9524C1.76108 35.2216 1.75403 36.4907 1.7646 37.7611C1.78103 39.6302 3.11358 41.0132 4.97916 41.1118C5.21279 41.1236 5.4476 41.1189 5.68241 41.1189C19.6842 41.1189 33.6859 41.1189 47.6889 41.1189C47.865 41.1189 48.0399 41.1153 48.216 41.1189C48.8101 41.1353 49.1964 41.4675 49.2058 41.9677C49.2163 42.4667 48.8359 42.8447 48.2524 42.8682C47.7065 42.8905 47.1594 42.8752 46.6123 42.8752C43.8004 42.8752 40.9886 42.8752 38.1755 42.8752H37.4617C37.882 44.6598 38.2871 46.3786 38.7038 48.1432C39.2345 48.1432 39.7394 48.1315 40.2442 48.1456C41.4417 48.1784 42.2882 49.0296 42.3223 50.2319C42.334 50.6416 42.3364 51.0525 42.3176 51.4623C42.2694 52.5389 41.4535 53.3724 40.3851 53.4511C40.1902 53.4652 39.9953 53.4652 39.7992 53.4652C33.2574 53.4652 26.7156 53.4628 20.1726 53.4699C19.4658 53.4699 18.8142 53.3783 18.2894 52.8465C17.4147 51.9601 17.3607 49.6307 18.2871 48.7983C18.6616 48.4614 19.2263 48.2771 19.7358 48.1667C20.2184 48.0622 20.742 48.1444 21.2962 48.1444C21.7106 46.3939 22.1168 44.6751 22.543 42.8752C22.253 42.8752 22.0252 42.8752 21.7963 42.8752C16.2888 42.8752 10.7825 42.8823 5.27502 42.8717C2.77663 42.867 0.811266 41.4265 0.19841 39.1582C0.0774823 38.7109 0.0117353 38.2354 0.0105613 37.7728C0.00351694 29.6331 0.00586505 21.4899 0.00586505 13.3466C0.00586505 13.2492 -5.21808e-06 13.1506 0.0129094 13.0543C0.0810045 12.5588 0.374518 12.2806 0.865272 12.2465C1.32785 12.2137 1.70472 12.5764 1.7552 13.0754C1.77282 13.2492 1.76225 13.4265 1.76225 13.6026C1.76225 19.3836 1.76225 25.1635 1.76225 30.9445C1.76225 31.177 1.76225 31.4106 1.76225 31.683H4.81596C4.81596 31.4317 4.81596 31.2028 4.81596 30.975C4.81596 23.2028 4.81596 15.4306 4.81596 7.65833C4.81596 5.75167 5.74816 4.82182 7.656 4.82182C22.5559 4.82182 37.457 4.82182 52.3569 4.82182C54.2542 4.82182 55.1864 5.75871 55.1864 7.67007C55.1864 15.4223 55.1864 23.1758 55.1864 30.9281C55.1864 31.1605 55.1864 31.3942 55.1864 31.6748H58.2401V31.049C58.2401 22.4761 58.2401 13.9031 58.2401 5.33018C58.2401 3.1124 56.8852 1.76693 54.6557 1.76576C38.2131 1.76576 21.7693 1.76576 5.32668 1.76576C3.10889 1.76576 1.7646 3.11944 1.76108 5.34779C1.7599 6.48075 1.76577 7.61372 1.75873 8.7455C1.7552 9.41706 1.40064 9.82798 0.860576 9.81272C0.341644 9.79863 0.00821316 9.4018 0.00586505 8.76194C-5.21762e-06 7.51157 -0.00939765 6.26238 0.00821316 5.01201C0.049305 2.23303 2.23187 0.0316787 5.01203 0.0128939C8.58585 -0.0117612 12.1597 0.00584956 15.7335 0.00584956C28.6222 0.00584956 41.511 0.00584956 54.3998 0.00584956C57.4511 0.00584956 59.1406 1.29731 59.9436 4.24066C59.953 4.27706 59.9812 4.30758 60.0012 4.34163V38.5571H60ZM6.57469 31.6712H53.4312V31.0384C53.4312 23.2685 53.4312 15.4987 53.4312 7.72877C53.4312 6.72144 53.2879 6.57703 52.2876 6.57703C37.4312 6.57703 22.5747 6.57703 7.71822 6.57703C6.71793 6.57703 6.57587 6.72026 6.57587 7.72877C6.57587 15.4787 6.57587 23.2298 6.57587 30.9797C6.57587 31.1934 6.57587 31.4071 6.57587 31.6712H6.57469ZM36.8477 48.1139C36.8171 47.9096 36.8042 47.737 36.7643 47.5703C36.4367 46.1861 36.0822 44.8077 35.7875 43.4176C35.6947 42.9786 35.5198 42.8658 35.0925 42.8682C32.0881 42.8858 29.0825 42.8752 26.0769 42.8799C25.5145 42.8799 24.7913 42.7085 24.4367 42.9891C24.0822 43.2697 24.0834 44.0129 23.9519 44.56C23.6713 45.7294 23.4048 46.9011 23.123 48.115H36.8465L36.8477 48.1139ZM29.9971 49.9019C26.8741 49.9019 23.7499 49.8984 20.6269 49.9031C19.3437 49.9055 19.4517 49.7411 19.4306 51.1007C19.4235 51.5632 19.6043 51.7147 20.0517 51.7147C26.6886 51.7065 33.3267 51.71 39.9636 51.7041C40.1291 51.7041 40.4309 51.6489 40.4403 51.5879C40.5072 51.1147 40.5671 50.6275 40.5084 50.1591C40.4943 50.044 40.034 49.9125 39.7781 49.9113C36.5178 49.8949 33.2574 49.9008 29.9971 49.9008V49.9019Z" fill="#1780B2"/>
</svg>
