<svg width="30" height="30" viewBox="0 0 30 30" fill="none" xmlns="http://www.w3.org/2000/svg">
<path d="M14.9996 16.7873C15.5118 16.7873 16.0189 16.6864 16.4921 16.4904C16.9652 16.2944 17.3952 16.0072 17.7573 15.645C18.1195 15.2829 18.4067 14.8529 18.6027 14.3798C18.7987 13.9066 18.8996 13.3995 18.8996 12.8873C18.8996 12.3751 18.7987 11.868 18.6027 11.3948C18.4067 10.9217 18.1195 10.4917 17.7573 10.1296C17.3952 9.76744 16.9652 9.48017 16.4921 9.28417C16.0189 9.08818 15.5118 8.9873 14.9996 8.9873C13.9653 8.9873 12.9733 9.3982 12.2419 10.1296C11.5105 10.861 11.0996 11.853 11.0996 12.8873C11.0996 13.9216 11.5105 14.9136 12.2419 15.645C12.9733 16.3764 13.9653 16.7873 14.9996 16.7873Z" stroke="#1780B2" stroke-width="1.5"/>
<path d="M4.52415 10.6125C6.98665 -0.212497 23.0241 -0.199997 25.4741 10.625C26.9116 16.975 22.9616 22.35 19.4991 25.675C18.2892 26.8419 16.6738 27.494 14.9929 27.494C13.312 27.494 11.6966 26.8419 10.4866 25.675C7.03665 22.35 3.08665 16.9625 4.52415 10.6125Z" stroke="#1780B2" stroke-width="1.5"/>
</svg>
