<svg width="66" height="73" viewBox="0 0 66 73" fill="none" xmlns="http://www.w3.org/2000/svg">
<g clip-path="url(#clip0_0_894)">
<path d="M14.1601 51.2122L7.07975 68.4577L0 51.2122H3.30329L7.07975 60.8001L10.8568 51.2122H14.1601Z" fill="#1780B2"/>
<path d="M18.001 54.1821V57.0826H23.6293V60.0525H18.001V63.8615H23.8042V66.8314H14.9461V51.2122H23.8042V54.1821H18.001Z" fill="#1780B2"/>
<path d="M37.5181 66.8314H34.0718L31.1197 61.5964L28.047 66.8314H24.5891L29.4237 58.6959L25.1728 51.2122H28.6185L31.2187 55.8025L33.8783 51.2122H37.3368L32.8962 58.705L37.5181 66.8314Z" fill="#1780B2"/>
<path d="M41.3386 54.1821V57.0826H46.9669V60.0525H41.3386V63.8615H47.1413V66.8314H38.2831V51.2122H47.1413V54.1821H41.3386Z" fill="#1780B2"/>
<path d="M57.0402 52.8003C55.3653 51.5365 53.5671 51.2771 51.3826 51.2771H47.9133V66.8963H51.3392C53.5396 66.8963 55.1552 66.6518 56.901 65.4016C58.8997 63.9718 60 61.7327 60 59.098C60 56.4634 58.9221 54.2392 57.0402 52.8003ZM55.1278 62.968C54.0058 63.8129 52.6712 63.9264 51.5135 63.9264H50.9688V54.247H51.5135C52.6137 54.247 54.0211 54.3533 55.152 55.1853C56.0185 55.8266 56.9451 57.1916 56.9451 59.098C56.9451 61.3235 55.6712 62.5484 55.1278 62.968Z" fill="#1780B2"/>
</g>
<path d="M16.4574 70.3639C16.4446 70.2559 16.3928 70.1721 16.3018 70.1125C16.2109 70.0528 16.0994 70.023 15.9673 70.023C15.8707 70.023 15.7862 70.0386 15.7138 70.0698C15.642 70.1011 15.5859 70.1441 15.5455 70.1988C15.5057 70.2534 15.4858 70.3156 15.4858 70.3852C15.4858 70.4434 15.4996 70.4935 15.5273 70.5354C15.5558 70.5766 15.592 70.611 15.636 70.6387C15.68 70.6657 15.7262 70.6881 15.7745 70.7059C15.8228 70.7229 15.8672 70.7367 15.9077 70.7474L16.1293 70.8071C16.1861 70.822 16.2493 70.8426 16.3189 70.8689C16.3892 70.8951 16.4563 70.931 16.5202 70.9765C16.5849 71.0212 16.6381 71.0787 16.68 71.149C16.7219 71.2193 16.7429 71.3056 16.7429 71.4079C16.7429 71.5258 16.712 71.6323 16.6502 71.7275C16.5891 71.8227 16.4996 71.8983 16.3817 71.9544C16.2646 72.0105 16.1222 72.0386 15.9545 72.0386C15.7983 72.0386 15.663 72.0134 15.5487 71.963C15.435 71.9125 15.3455 71.8422 15.2802 71.752C15.2156 71.6618 15.179 71.5571 15.1705 71.4377H15.4432C15.4503 71.5201 15.478 71.5883 15.5263 71.6423C15.5753 71.6956 15.6371 71.7353 15.7116 71.7616C15.7869 71.7872 15.8679 71.8 15.9545 71.8C16.0554 71.8 16.146 71.7836 16.2262 71.751C16.3065 71.7176 16.37 71.6714 16.4169 71.6125C16.4638 71.5528 16.4872 71.4832 16.4872 71.4037C16.4872 71.3312 16.467 71.2723 16.4265 71.2268C16.386 71.1814 16.3327 71.1444 16.2667 71.116C16.2006 71.0876 16.1293 71.0627 16.0526 71.0414L15.7841 70.9647C15.6136 70.9157 15.4787 70.8458 15.3793 70.7549C15.2798 70.664 15.2301 70.545 15.2301 70.398C15.2301 70.2758 15.2631 70.1693 15.3292 70.0784C15.396 69.9867 15.4854 69.9157 15.5977 69.8653C15.7106 69.8142 15.8366 69.7886 15.9759 69.7886C16.1165 69.7886 16.2415 69.8138 16.3509 69.8642C16.4602 69.914 16.5469 69.9821 16.6108 70.0688C16.6754 70.1554 16.7095 70.2538 16.7131 70.3639H16.4574ZM21.4482 70.9093C21.4482 71.1394 21.4067 71.3383 21.3236 71.5059C21.2405 71.6735 21.1265 71.8028 20.9816 71.8937C20.8367 71.9846 20.6712 72.0301 20.4851 72.0301C20.2991 72.0301 20.1336 71.9846 19.9887 71.8937C19.8438 71.8028 19.7298 71.6735 19.6467 71.5059C19.5636 71.3383 19.5221 71.1394 19.5221 70.9093C19.5221 70.6792 19.5636 70.4804 19.6467 70.3127C19.7298 70.1451 19.8438 70.0159 19.9887 69.925C20.1336 69.8341 20.2991 69.7886 20.4851 69.7886C20.6712 69.7886 20.8367 69.8341 20.9816 69.925C21.1265 70.0159 21.2405 70.1451 21.3236 70.3127C21.4067 70.4804 21.4482 70.6792 21.4482 70.9093ZM21.1925 70.9093C21.1925 70.7204 21.1609 70.561 21.0977 70.431C21.0352 70.301 20.9503 70.2027 20.8431 70.1359C20.7366 70.0691 20.6172 70.0358 20.4851 70.0358C20.353 70.0358 20.2334 70.0691 20.1261 70.1359C20.0196 70.2027 19.9347 70.301 19.8715 70.431C19.809 70.561 19.7777 70.7204 19.7777 70.9093C19.7777 71.0983 19.809 71.2577 19.8715 71.3877C19.9347 71.5176 20.0196 71.616 20.1261 71.6828C20.2334 71.7495 20.353 71.7829 20.4851 71.7829C20.6172 71.7829 20.7366 71.7495 20.8431 71.6828C20.9503 71.616 21.0352 71.5176 21.0977 71.3877C21.1609 71.2577 21.1925 71.0983 21.1925 70.9093ZM24.3224 72.0002V69.8184H24.5867V71.7659H25.6009V72.0002H24.3224ZM29.8718 69.8184H30.136V71.263C30.136 71.4122 30.1008 71.5453 30.0305 71.6625C29.9609 71.779 29.8625 71.871 29.7354 71.9385C29.6083 72.0052 29.4591 72.0386 29.288 72.0386C29.1168 72.0386 28.9676 72.0052 28.8405 71.9385C28.7134 71.871 28.6147 71.779 28.5444 71.6625C28.4747 71.5453 28.4399 71.4122 28.4399 71.263V69.8184H28.7042V71.2417C28.7042 71.3483 28.7276 71.4431 28.7745 71.5262C28.8213 71.6086 28.8881 71.6735 28.9747 71.7211C29.0621 71.768 29.1665 71.7914 29.288 71.7914C29.4094 71.7914 29.5138 71.768 29.6012 71.7211C29.6885 71.6735 29.7553 71.6086 29.8015 71.5262C29.8483 71.4431 29.8718 71.3483 29.8718 71.2417V69.8184ZM32.9743 70.0528V69.8184H34.6106V70.0528H33.9245V72.0002H33.6603V70.0528H32.9743ZM37.7126 69.8184V72.0002H37.4484V69.8184H37.7126ZM42.5132 70.9093C42.5132 71.1394 42.4717 71.3383 42.3886 71.5059C42.3055 71.6735 42.1915 71.8028 42.0466 71.8937C41.9017 71.9846 41.7362 72.0301 41.5502 72.0301C41.3641 72.0301 41.1986 71.9846 41.0537 71.8937C40.9088 71.8028 40.7948 71.6735 40.7117 71.5059C40.6287 71.3383 40.5871 71.1394 40.5871 70.9093C40.5871 70.6792 40.6287 70.4804 40.7117 70.3127C40.7948 70.1451 40.9088 70.0159 41.0537 69.925C41.1986 69.8341 41.3641 69.7886 41.5502 69.7886C41.7362 69.7886 41.9017 69.8341 42.0466 69.925C42.1915 70.0159 42.3055 70.1451 42.3886 70.3127C42.4717 70.4804 42.5132 70.6792 42.5132 70.9093ZM42.2576 70.9093C42.2576 70.7204 42.226 70.561 42.1627 70.431C42.1002 70.301 42.0154 70.2027 41.9081 70.1359C41.8016 70.0691 41.6823 70.0358 41.5502 70.0358C41.4181 70.0358 41.2984 70.0691 41.1912 70.1359C41.0846 70.2027 40.9997 70.301 40.9365 70.431C40.874 70.561 40.8428 70.7204 40.8428 70.9093C40.8428 71.0983 40.874 71.2577 40.9365 71.3877C40.9997 71.5176 41.0846 71.616 41.1912 71.6828C41.2984 71.7495 41.4181 71.7829 41.5502 71.7829C41.6823 71.7829 41.8016 71.7495 41.9081 71.6828C42.0154 71.616 42.1002 71.5176 42.1627 71.3877C42.226 71.2577 42.2576 71.0983 42.2576 70.9093ZM47.1176 69.8184V72.0002H46.8619L45.673 70.2872H45.6517V72.0002H45.3875V69.8184H45.6432L46.8363 71.5358H46.8577V69.8184H47.1176ZM51.2695 70.3639C51.2567 70.2559 51.2048 70.1721 51.1139 70.1125C51.023 70.0528 50.9115 70.023 50.7794 70.023C50.6828 70.023 50.5983 70.0386 50.5259 70.0698C50.4541 70.1011 50.398 70.1441 50.3575 70.1988C50.3178 70.2534 50.2979 70.3156 50.2979 70.3852C50.2979 70.4434 50.3117 70.4935 50.3394 70.5354C50.3678 70.5766 50.404 70.611 50.4481 70.6387C50.4921 70.6657 50.5383 70.6881 50.5866 70.7059C50.6349 70.7229 50.6793 70.7367 50.7197 70.7474L50.9413 70.8071C50.9982 70.822 51.0614 70.8426 51.131 70.8689C51.2013 70.8951 51.2684 70.931 51.3323 70.9765C51.3969 71.0212 51.4502 71.0787 51.4921 71.149C51.534 71.2193 51.555 71.3056 51.555 71.4079C51.555 71.5258 51.5241 71.6323 51.4623 71.7275C51.4012 71.8227 51.3117 71.8983 51.1938 71.9544C51.0766 72.0105 50.9342 72.0386 50.7666 72.0386C50.6104 72.0386 50.4751 72.0134 50.3607 71.963C50.2471 71.9125 50.1576 71.8422 50.0923 71.752C50.0276 71.6618 49.9911 71.5571 49.9825 71.4377H50.2553C50.2624 71.5201 50.2901 71.5883 50.3384 71.6423C50.3874 71.6956 50.4491 71.7353 50.5237 71.7616C50.599 71.7872 50.68 71.8 50.7666 71.8C50.8675 71.8 50.958 71.7836 51.0383 71.751C51.1185 71.7176 51.1821 71.6714 51.229 71.6125C51.2759 71.5528 51.2993 71.4832 51.2993 71.4037C51.2993 71.3312 51.279 71.2723 51.2386 71.2268C51.1981 71.1814 51.1448 71.1444 51.0788 71.116C51.0127 71.0876 50.9413 71.0627 50.8646 71.0414L50.5962 70.9647C50.4257 70.9157 50.2908 70.8458 50.1913 70.7549C50.0919 70.664 50.0422 70.545 50.0422 70.398C50.0422 70.2758 50.0752 70.1693 50.1413 70.0784C50.208 69.9867 50.2975 69.9157 50.4097 69.8653C50.5227 69.8142 50.6487 69.7886 50.7879 69.7886C50.9286 69.7886 51.0536 69.8138 51.1629 69.8642C51.2723 69.914 51.3589 69.9821 51.4229 70.0688C51.4875 70.1554 51.5216 70.2538 51.5251 70.3639H51.2695Z" fill="#1780B2"/>
<g filter="url(#filter0_d_0_894)">
<path d="M27.6097 17.4528L27.5979 17.2292L39.9135 17.4234L38.0873 20.4584L27.6097 17.4528Z" fill="url(#paint0_linear_0_894)"/>
</g>
<g filter="url(#filter1_d_0_894)">
<path d="M42.9088 13.5361L39.9597 17.3912L27.6485 17.3267L30.564 13.7835L42.9088 13.5361Z" fill="url(#paint1_linear_0_894)"/>
</g>
<g filter="url(#filter2_d_0_894)">
<path d="M49.1777 13.4465L45.0158 20.3631L41.1803 26.7372L35.374 24.7211L42.1472 13.4648L49.1777 13.4465Z" fill="url(#paint2_linear_0_894)"/>
</g>
<g filter="url(#filter3_d_0_894)">
<path d="M10.8085 13.6875H18.8807H26.3198L27.586 19.7021H14.4489L10.8085 13.6875Z" fill="url(#paint3_linear_0_894)"/>
</g>
<g filter="url(#filter4_d_0_894)">
<path d="M25.3616 30.1016L25.1762 30.2271L18.9928 19.5744L22.535 19.5744L25.3616 30.1016Z" fill="url(#paint4_linear_0_894)"/>
</g>
<g filter="url(#filter5_d_0_894)">
<path d="M14.1171 19.0129L18.9409 19.5522L25.233 30.1341L20.6939 29.4629L14.1171 19.0129Z" fill="url(#paint5_linear_0_894)"/>
</g>
<g filter="url(#filter6_d_0_894)">
<path d="M37.4649 26.0899L37.6623 26.1956L31.1173 36.6299L29.467 33.4957L37.4649 26.0899Z" fill="url(#paint6_linear_0_894)"/>
</g>
<g filter="url(#filter7_d_0_894)">
<path d="M32.8904 41.2047L31.1201 36.6852L37.5519 26.1875L39.0727 30.5166L32.8904 41.2047Z" fill="url(#paint7_linear_0_894)"/>
</g>
<g filter="url(#filter8_d_0_894)">
<path d="M29.7206 46.6135L25.9598 39.471L22.4939 32.8886L27.2258 28.966L33.3465 40.5902L29.7206 46.6135Z" fill="url(#paint8_linear_0_894)"/>
</g>
<defs>
<filter id="filter0_d_0_894" x="6.59787" y="0.229248" width="46.3157" height="37.2292" filterUnits="userSpaceOnUse" color-interpolation-filters="sRGB">
<feFlood flood-opacity="0" result="BackgroundImageFix"/>
<feColorMatrix in="SourceAlpha" type="matrix" values="0 0 0 0 0 0 0 0 0 0 0 0 0 0 0 0 0 0 127 0" result="hardAlpha"/>
<feOffset dx="-4"/>
<feGaussianBlur stdDeviation="8.5"/>
<feComposite in2="hardAlpha" operator="out"/>
<feColorMatrix type="matrix" values="0 0 0 0 0.270588 0 0 0 0 0.619608 0 0 0 0 0.839216 0 0 0 1 0"/>
<feBlend mode="normal" in2="BackgroundImageFix" result="effect1_dropShadow_0_894"/>
<feBlend mode="normal" in="SourceGraphic" in2="effect1_dropShadow_0_894" result="shape"/>
</filter>
<filter id="filter1_d_0_894" x="27.6485" y="13.5361" width="23.2603" height="11.855" filterUnits="userSpaceOnUse" color-interpolation-filters="sRGB">
<feFlood flood-opacity="0" result="BackgroundImageFix"/>
<feColorMatrix in="SourceAlpha" type="matrix" values="0 0 0 0 0 0 0 0 0 0 0 0 0 0 0 0 0 0 127 0" result="hardAlpha"/>
<feOffset dx="4" dy="4"/>
<feGaussianBlur stdDeviation="2"/>
<feComposite in2="hardAlpha" operator="out"/>
<feColorMatrix type="matrix" values="0 0 0 0 0 0 0 0 0 0 0 0 0 0 0 0 0 0 0.25 0"/>
<feBlend mode="normal" in2="BackgroundImageFix" result="effect1_dropShadow_0_894"/>
<feBlend mode="normal" in="SourceGraphic" in2="effect1_dropShadow_0_894" result="shape"/>
</filter>
<filter id="filter2_d_0_894" x="35.374" y="13.4465" width="21.8037" height="21.2905" filterUnits="userSpaceOnUse" color-interpolation-filters="sRGB">
<feFlood flood-opacity="0" result="BackgroundImageFix"/>
<feColorMatrix in="SourceAlpha" type="matrix" values="0 0 0 0 0 0 0 0 0 0 0 0 0 0 0 0 0 0 127 0" result="hardAlpha"/>
<feOffset dx="4" dy="4"/>
<feGaussianBlur stdDeviation="2"/>
<feComposite in2="hardAlpha" operator="out"/>
<feColorMatrix type="matrix" values="0 0 0 0 0 0 0 0 0 0 0 0 0 0 0 0 0 0 0.25 0"/>
<feBlend mode="normal" in2="BackgroundImageFix" result="effect1_dropShadow_0_894"/>
<feBlend mode="normal" in="SourceGraphic" in2="effect1_dropShadow_0_894" result="shape"/>
</filter>
<filter id="filter3_d_0_894" x="10.8085" y="13.6875" width="24.7775" height="14.0146" filterUnits="userSpaceOnUse" color-interpolation-filters="sRGB">
<feFlood flood-opacity="0" result="BackgroundImageFix"/>
<feColorMatrix in="SourceAlpha" type="matrix" values="0 0 0 0 0 0 0 0 0 0 0 0 0 0 0 0 0 0 127 0" result="hardAlpha"/>
<feOffset dx="4" dy="4"/>
<feGaussianBlur stdDeviation="2"/>
<feComposite in2="hardAlpha" operator="out"/>
<feColorMatrix type="matrix" values="0 0 0 0 0 0 0 0 0 0 0 0 0 0 0 0 0 0 0.25 0"/>
<feBlend mode="normal" in2="BackgroundImageFix" result="effect1_dropShadow_0_894"/>
<feBlend mode="normal" in="SourceGraphic" in2="effect1_dropShadow_0_894" result="shape"/>
</filter>
<filter id="filter4_d_0_894" x="18.9928" y="19.5745" width="14.3688" height="18.6526" filterUnits="userSpaceOnUse" color-interpolation-filters="sRGB">
<feFlood flood-opacity="0" result="BackgroundImageFix"/>
<feColorMatrix in="SourceAlpha" type="matrix" values="0 0 0 0 0 0 0 0 0 0 0 0 0 0 0 0 0 0 127 0" result="hardAlpha"/>
<feOffset dx="4" dy="4"/>
<feGaussianBlur stdDeviation="2"/>
<feComposite in2="hardAlpha" operator="out"/>
<feColorMatrix type="matrix" values="0 0 0 0 0 0 0 0 0 0 0 0 0 0 0 0 0 0 0.25 0"/>
<feBlend mode="normal" in2="BackgroundImageFix" result="effect1_dropShadow_0_894"/>
<feBlend mode="normal" in="SourceGraphic" in2="effect1_dropShadow_0_894" result="shape"/>
</filter>
<filter id="filter5_d_0_894" x="14.1171" y="19.0129" width="19.1159" height="19.1211" filterUnits="userSpaceOnUse" color-interpolation-filters="sRGB">
<feFlood flood-opacity="0" result="BackgroundImageFix"/>
<feColorMatrix in="SourceAlpha" type="matrix" values="0 0 0 0 0 0 0 0 0 0 0 0 0 0 0 0 0 0 127 0" result="hardAlpha"/>
<feOffset dx="4" dy="4"/>
<feGaussianBlur stdDeviation="2"/>
<feComposite in2="hardAlpha" operator="out"/>
<feColorMatrix type="matrix" values="0 0 0 0 0 0 0 0 0 0 0 0 0 0 0 0 0 0 0.25 0"/>
<feBlend mode="normal" in2="BackgroundImageFix" result="effect1_dropShadow_0_894"/>
<feBlend mode="normal" in="SourceGraphic" in2="effect1_dropShadow_0_894" result="shape"/>
</filter>
<filter id="filter6_d_0_894" x="8.46701" y="5.08984" width="42.1953" height="44.54" filterUnits="userSpaceOnUse" color-interpolation-filters="sRGB">
<feFlood flood-opacity="0" result="BackgroundImageFix"/>
<feColorMatrix in="SourceAlpha" type="matrix" values="0 0 0 0 0 0 0 0 0 0 0 0 0 0 0 0 0 0 127 0" result="hardAlpha"/>
<feOffset dx="-4" dy="-4"/>
<feGaussianBlur stdDeviation="8.5"/>
<feComposite in2="hardAlpha" operator="out"/>
<feColorMatrix type="matrix" values="0 0 0 0 0.270588 0 0 0 0 0.619608 0 0 0 0 0.839216 0 0 0 1 0"/>
<feBlend mode="normal" in2="BackgroundImageFix" result="effect1_dropShadow_0_894"/>
<feBlend mode="normal" in="SourceGraphic" in2="effect1_dropShadow_0_894" result="shape"/>
</filter>
<filter id="filter7_d_0_894" x="23.1201" y="18.1875" width="15.9526" height="23.0171" filterUnits="userSpaceOnUse" color-interpolation-filters="sRGB">
<feFlood flood-opacity="0" result="BackgroundImageFix"/>
<feColorMatrix in="SourceAlpha" type="matrix" values="0 0 0 0 0 0 0 0 0 0 0 0 0 0 0 0 0 0 127 0" result="hardAlpha"/>
<feOffset dx="-4" dy="-4"/>
<feGaussianBlur stdDeviation="2"/>
<feComposite in2="hardAlpha" operator="out"/>
<feColorMatrix type="matrix" values="0 0 0 0 0 0 0 0 0 0 0 0 0 0 0 0 0 0 0.25 0"/>
<feBlend mode="normal" in2="BackgroundImageFix" result="effect1_dropShadow_0_894"/>
<feBlend mode="normal" in="SourceGraphic" in2="effect1_dropShadow_0_894" result="shape"/>
</filter>
<filter id="filter8_d_0_894" x="22.4939" y="28.9661" width="18.8526" height="25.6475" filterUnits="userSpaceOnUse" color-interpolation-filters="sRGB">
<feFlood flood-opacity="0" result="BackgroundImageFix"/>
<feColorMatrix in="SourceAlpha" type="matrix" values="0 0 0 0 0 0 0 0 0 0 0 0 0 0 0 0 0 0 127 0" result="hardAlpha"/>
<feOffset dx="4" dy="4"/>
<feGaussianBlur stdDeviation="2"/>
<feComposite in2="hardAlpha" operator="out"/>
<feColorMatrix type="matrix" values="0 0 0 0 0 0 0 0 0 0 0 0 0 0 0 0 0 0 0.25 0"/>
<feBlend mode="normal" in2="BackgroundImageFix" result="effect1_dropShadow_0_894"/>
<feBlend mode="normal" in="SourceGraphic" in2="effect1_dropShadow_0_894" result="shape"/>
</filter>
<linearGradient id="paint0_linear_0_894" x1="26.1057" y1="18.2423" x2="35.8504" y2="18.621" gradientUnits="userSpaceOnUse">
<stop stop-color="#1780B2"/>
<stop offset="1" stop-color="#262666"/>
</linearGradient>
<linearGradient id="paint1_linear_0_894" x1="44.1217" y1="14.5448" x2="28.4056" y2="17.5504" gradientUnits="userSpaceOnUse">
<stop stop-color="#1780B2"/>
<stop offset="1" stop-color="#262666"/>
</linearGradient>
<linearGradient id="paint2_linear_0_894" x1="37.334" y1="16.2" x2="39.9796" y2="20.0104" gradientUnits="userSpaceOnUse">
<stop stop-color="#1780B2"/>
<stop offset="0.989583" stop-color="#262666"/>
</linearGradient>
<linearGradient id="paint3_linear_0_894" x1="19.2742" y1="22.4159" x2="21.1751" y2="18.1846" gradientUnits="userSpaceOnUse">
<stop stop-color="#1780B2"/>
<stop offset="0.989583" stop-color="#262666"/>
</linearGradient>
<linearGradient id="paint4_linear_0_894" x1="27.7572" y1="29.672" x2="19.3769" y2="19.9554" gradientUnits="userSpaceOnUse">
<stop stop-color="#1780B2"/>
<stop offset="1" stop-color="#262666"/>
</linearGradient>
<linearGradient id="paint5_linear_0_894" x1="14.356" y1="17.4536" x2="25.0344" y2="29.37" gradientUnits="userSpaceOnUse">
<stop stop-color="#1780B2"/>
<stop offset="1" stop-color="#262666"/>
</linearGradient>
<linearGradient id="paint6_linear_0_894" x1="37.5685" y1="24.3944" x2="32.1973" y2="32.534" gradientUnits="userSpaceOnUse">
<stop stop-color="#1780B2"/>
<stop offset="1" stop-color="#262666"/>
</linearGradient>
<linearGradient id="paint7_linear_0_894" x1="42.2094" y1="20.8392" x2="39.7327" y2="20.0499" gradientUnits="userSpaceOnUse">
<stop stop-color="#1780B2"/>
<stop offset="0.989583" stop-color="#262666"/>
</linearGradient>
<linearGradient id="paint8_linear_0_894" x1="33.4997" y1="35.0562" x2="28.87" y2="35.3456" gradientUnits="userSpaceOnUse">
<stop stop-color="#1780B2"/>
<stop offset="0.989583" stop-color="#262666"/>
</linearGradient>
<clipPath id="clip0_0_894">
<rect width="60" height="17.2455" fill="white" transform="translate(0 51.2122)"/>
</clipPath>
</defs>
</svg>
